<svg xmlns="http://www.w3.org/2000/svg" xmlns:xlink="http://www.w3.org/1999/xlink" width="157.13" height="21" viewBox="0 0 157.13 21">
  <defs>
    <linearGradient id="linear-gradient" x1="1.776" y1="-0.372" x2="-0.701" y2="1.259" gradientUnits="objectBoundingBox">
      <stop offset="0" stop-color="#f7931e"/>
      <stop offset="0.999" stop-color="#e3083b"/>
    </linearGradient>
    <linearGradient id="linear-gradient-2" x1="1.298" y1="-0.06" x2="-1.171" y2="1.572" xlink:href="#linear-gradient"/>
    <linearGradient id="linear-gradient-3" x1="2.215" y1="1.263" x2="-3.327" y2="6.212" xlink:href="#linear-gradient"/>
  </defs>
  <g id="Group_6063" data-name="Group 6063" transform="translate(-150 -2020.5)">
    <g id="Group_23" data-name="Group 23" transform="translate(150 2020.5)">
      <path id="Path_43" data-name="Path 43" d="M16.407,15.967,9.171,2.911A5.227,5.227,0,0,0,4.688.237H.283A.353.353,0,0,0-.031.788L9.8,18.563a5.041,5.041,0,0,0,4.483,2.674h5.034l-.708-1.258.708,1.258h3.618a.782.782,0,0,0,.708-1.18A8.349,8.349,0,0,1,16.407,15.967Z" transform="translate(0.093 -0.237)" fill="url(#linear-gradient)"/>
      <path id="Path_44" data-name="Path 44" d="M39.184,15.967,31.948,2.911A5.132,5.132,0,0,0,27.465.237h-4.4a.353.353,0,0,0-.315.551l9.831,17.775a5.041,5.041,0,0,0,4.483,2.674h5.034l-.629-1.258.708,1.258H45.79a.782.782,0,0,0,.708-1.18A8.647,8.647,0,0,1,39.184,15.967Z" transform="translate(-7.583 -0.237)" fill="url(#linear-gradient-2)"/>
      <path id="Path_45" data-name="Path 45" d="M46.619,4.8h0A3.428,3.428,0,0,0,53.3,3.7,3.491,3.491,0,0,0,49.843.237H43.315a.717.717,0,0,0-.629.944C45.36,1.26,46.619,4.8,46.619,4.8Z" transform="translate(-14.31 -0.237)" fill="url(#linear-gradient-3)"/>
    </g>
    <g id="Group_24" data-name="Group 24" transform="translate(197.725 2025.219)">
      <path id="Path_46" data-name="Path 46" d="M87.384,7.355h-.393a.4.4,0,0,0-.393.315l-2.36,10.7L80.305,7.748a.582.582,0,0,0-1.1,0L75.272,18.366l-2.2-10.539V7.67c-.079-.157-.157-.315-.393-.315h-.393a.6.6,0,0,0-.315.157c-.079.079-.079.157-.079.315v.236L74.564,20.49a.524.524,0,0,0,.551.393h0a.591.591,0,0,0,.551-.393l4.09-11.011,4.09,11.011a.591.591,0,0,0,.551.393h.079a.591.591,0,0,0,.551-.393L87.7,8.063V7.827a.473.473,0,0,0-.079-.315C87.62,7.434,87.541,7.355,87.384,7.355Z" transform="translate(-71.89 -7.355)" fill="#fff"/>
      <path id="Path_47" data-name="Path 47" d="M112.565,7.355h-.393a.372.372,0,0,0-.393.393v5.82h-7.865V7.748a.372.372,0,0,0-.393-.393h-.393a.372.372,0,0,0-.393.393v12.82a.372.372,0,0,0,.393.393h.393a.372.372,0,0,0,.393-.393v-5.82h7.865v5.82a.372.372,0,0,0,.393.393h.393a.372.372,0,0,0,.393-.393V7.748A.372.372,0,0,0,112.565,7.355Z" transform="translate(-82.284 -7.355)" fill="#fff"/>
      <path id="Path_48" data-name="Path 48" d="M128.551,7.355h-.393a.372.372,0,0,0-.393.393v12.82a.372.372,0,0,0,.393.393h.393a.372.372,0,0,0,.393-.393V7.748C128.866,7.512,128.708,7.355,128.551,7.355Z" transform="translate(-90.72 -7.355)" fill="#fff"/>
      <path id="Path_49" data-name="Path 49" d="M146.154,19.782h-7.786L146.075,8.22a.484.484,0,0,0,.079-.551.647.647,0,0,0-.472-.315h-8.1a.372.372,0,0,0-.393.393v.393a.372.372,0,0,0,.393.393h7.079L136.951,20.1a.484.484,0,0,0-.079.551.647.647,0,0,0,.472.315h8.809a.372.372,0,0,0,.393-.393v-.393A.372.372,0,0,0,146.154,19.782Z" transform="translate(-93.772 -7.355)" fill="#fff"/>
      <path id="Path_50" data-name="Path 50" d="M166.433,19.782h-6.764V7.748a.372.372,0,0,0-.393-.393h-.393a.372.372,0,0,0-.393.393V20.332a.538.538,0,0,0,.551.551h7.315a.372.372,0,0,0,.393-.393V20.1C166.827,19.939,166.669,19.782,166.433,19.782Z" transform="translate(-101.074 -7.355)" fill="#fff"/>
      <path id="Path_51" data-name="Path 51" d="M182.28,7.788a.639.639,0,0,0-1.1,0l-5.427,12.427-.079.236c-.079.079,0,.236,0,.393a.409.409,0,0,0,.315.157h.393a.433.433,0,0,0,.393-.236L181.729,9.44l4.955,11.247v.079a.363.363,0,0,0,.393.236h.393a.409.409,0,0,0,.315-.157.351.351,0,0,0,0-.393Z" transform="translate(-106.854 -7.395)" fill="#fff"/>
      <path id="Path_52" data-name="Path 52" d="M208.787,14.082a3.545,3.545,0,0,0,1.494-2.831,3.775,3.775,0,0,0-3.933-3.539h-4.483a.538.538,0,0,0-.551.551V20.216a.538.538,0,0,0,.551.551h5.27a3.725,3.725,0,0,0,3.933-3.539A3.428,3.428,0,0,0,208.787,14.082Zm.393-2.831a2.657,2.657,0,0,1-2.831,2.438h-3.933V8.812h3.933A2.657,2.657,0,0,1,209.18,11.25Zm-2.045,3.618a2.658,2.658,0,0,1,2.831,2.438,2.658,2.658,0,0,1-2.831,2.438h-4.719V14.868h4.719Z" transform="translate(-115.507 -7.475)" fill="#fff"/>
      <path id="Path_53" data-name="Path 53" d="M227.385,13.568c-1.888-.708-3.7-1.416-3.7-2.517,0-1.416,1.494-2.517,3.382-2.517s3.382,1.1,3.382,2.517v.157a.372.372,0,0,0,.393.393h.393a.372.372,0,0,0,.393-.393v-.157c0-2.045-2.045-3.7-4.483-3.7-2.517,0-4.483,1.652-4.483,3.7,0,1.966,2.281,2.831,4.562,3.618,1.888.708,3.7,1.416,3.7,2.6,0,1.337-1.73,2.517-3.775,2.517s-3.775-1.1-3.775-2.517v-.157a.372.372,0,0,0-.393-.393h-.393a.372.372,0,0,0-.393.393v.157c0,2.045,2.2,3.7,4.876,3.7s4.876-1.652,4.876-3.7C232.025,15.3,229.666,14.434,227.385,13.568Z" transform="translate(-122.543 -7.355)" fill="#fff"/>
    </g>
  </g>
</svg>
